{"glyphs":{":":{"x_min":0,"x_max":230,"ha":230,"o":"m 190 20 l 40 20 l 40 170 l 190 170 z m 190 370 l 40 370 l 40 520 l 190 520 z"},"$":{"x_min":0,"x_max":556,"ha":556,"o":"m 249 -103 l 249 -15 q 183 -7 142 14 q 101 36 71 83 q 41 130 36 199 l 124 215 q 134 145 160 111 q 197 64 249 59 l 249 339 q 195 349 138 381 q 96 404 74 446 q 51 487 51 540 q 51 634 117 692 q 162 731 249 740 l 249 782 l 301 782 l 301 740 q 377 732 422 695 q 480 647 492 563 l 401 550 q 393 602 368 630 q 344 657 301 666 l 301 412 q 367 396 389 386 q 430 368 456 342 q 481 316 495 280 q 509 245 509 204 q 509 112 451 51 q 393 -10 301 -14 l 301 -103 z m 249 667 q 198 659 168 626 q 139 592 139 547 q 139 502 164 472 q 189 441 249 423 z m 301 59 q 352 65 386 104 q 419 142 419 198 q 419 246 396 275 q 372 304 301 327 z"},"?":{"x_min":0,"x_max":480,"ha":480,"o":"m 190 -30 l 40 -30 l 40 120 l 190 120 z m 440 345 l 340 245 l 190 245 l 190 170 l 40 170 l 40 295 l 140 395 l 290 395 l 290 520 l 190 520 l 190 470 l 40 470 l 40 570 l 140 670 l 340 670 l 440 570 z"},"<":{"x_min":0,"x_max":583,"ha":583,"o":"m 55 356 l 55 456 l 529 698 l 529 592 l 153 405 l 529 216 l 529 110 z"},"'":{"x_min":0,"x_max":230,"ha":230,"o":"m 190 570 l 90 470 l 90 570 l 40 570 l 40 720 l 190 720 z"},"=":{"x_min":0,"x_max":583,"ha":583,"o":"m 528 402 l 56 402 l 56 503 l 528 503 z m 528 204 l 56 204 l 56 301 l 528 301 z"},"a":{"x_min":0,"x_max":430,"ha":430,"o":"m 252 200 l 215 417 l 178 200 z m 445 -50 l 295 -50 l 278 50 l 152 50 l 135 -50 l -15 -50 l 115 650 l 315 650 z"},"L":{"x_min":0,"x_max":400,"ha":400,"o":"m 390 40 l 40 40 l 40 740 l 190 740 l 190 190 l 390 190 z"},"3":{"x_min":0,"x_max":490,"ha":490,"o":"m 450 150 l 350 50 l 150 50 l 40 160 l 40 250 l 200 250 l 200 200 l 300 200 l 300 325 l 200 325 l 200 475 l 300 475 l 300 600 l 200 600 l 200 550 l 50 550 l 50 650 l 150 750 l 350 750 l 450 650 l 450 470 l 380 400 l 450 330 z"},";":{"x_min":0,"x_max":230,"ha":230,"o":"m 190 -10 l 90 -110 l 90 -10 l 40 -10 l 40 140 l 190 140 z m 190 340 l 40 340 l 40 490 l 190 490 z"},"J":{"x_min":0,"x_max":450,"ha":450,"o":"m 410 60 l 310 -40 l 110 -40 l 10 60 l 10 210 l 160 210 l 160 110 l 260 110 l 260 660 l 410 660 z"},"V":{"x_min":0,"x_max":430,"ha":430,"o":"m 445 650 l 315 -50 l 115 -50 l -15 650 l 135 650 l 215 183 l 295 650 z"},"\"":{"x_min":0,"x_max":420,"ha":420,"o":"m 190 530 l 90 430 l 90 530 l 40 530 l 40 680 l 190 680 z m 380 530 l 280 430 l 280 530 l 230 530 l 230 680 l 380 680 z"},"7":{"x_min":0,"x_max":510,"ha":510,"o":"m 480 530 l 240 -20 l 70 -20 l 310 530 l 180 530 l 180 480 l 30 480 l 30 680 l 480 680 z"},"S":{"x_min":0,"x_max":480,"ha":480,"o":"m 440 120 l 340 20 l 140 20 l 40 120 l 40 220 l 190 220 l 190 170 l 290 170 l 290 295 l 140 295 l 40 395 l 40 620 l 140 720 l 340 720 l 440 620 l 440 520 l 290 520 l 290 570 l 190 570 l 190 445 l 340 445 l 440 345 z"},"}":{"x_min":0,"x_max":370,"ha":370,"o":"m 350 340 l 290 290 l 290 60 l 190 -40 l 40 -40 l 40 110 l 140 110 l 140 310 l 190 360 l 140 410 l 140 610 l 40 610 l 40 760 l 190 760 l 290 660 l 290 430 l 350 380 z"},"Z":{"x_min":0,"x_max":480,"ha":480,"o":"m 440 40 l 40 40 l 40 190 l 260 590 l 40 590 l 40 740 l 440 740 l 440 590 l 220 190 l 440 190 z"},"x":{"x_min":0,"x_max":470,"ha":470,"o":"m 460 -20 l 310 -20 l 235 155 l 160 -20 l 10 -20 l 160 330 l 10 680 l 160 680 l 235 505 l 310 680 l 460 680 l 310 330 z"},")":{"x_min":0,"x_max":330,"ha":330,"o":"m 290 70 l 190 -30 l 40 -30 l 40 120 l 140 120 l 140 620 l 40 620 l 40 770 l 190 770 l 290 670 z"},"&":{"x_min":0,"x_max":666,"ha":666,"o":"m 475 84 q 432 36 380 12 q 329 -12 270 -12 q 160 -12 95 62 q 43 123 43 197 q 43 264 86 318 q 128 371 213 411 q 165 467 149 502 q 133 536 133 568 q 133 633 184 680 q 234 728 311 728 q 384 728 430 683 q 477 638 477 575 q 477 473 342 401 l 470 237 q 492 280 504 337 l 596 317 q 572 224 532 163 q 582 98 644 53 l 585 -17 q 532 18 475 84 z m 296 458 q 354 491 370 516 q 387 542 387 573 q 387 609 364 632 q 341 656 306 656 q 271 656 247 633 q 223 610 223 577 q 223 560 232 542 q 240 523 257 503 z m 420 154 l 259 354 q 188 311 163 274 q 138 238 138 203 q 138 159 172 112 q 207 65 271 65 q 310 65 352 90 q 395 115 420 154 z"},"_":{"x_min":0,"x_max":590,"ha":590,"o":"m 6 -118 l 6 -5 l 588 -5 l 588 -118 z"},"v":{"x_min":0,"x_max":430,"ha":430,"o":"m 445 710 l 315 10 l 115 10 l -15 710 l 135 710 l 215 243 l 295 710 z"},"O":{"x_min":0,"x_max":480,"ha":480,"o":"m 290 200 l 290 600 l 190 600 l 190 200 z m 440 150 l 340 50 l 140 50 l 40 150 l 40 650 l 140 750 l 340 750 l 440 650 z"},"(":{"x_min":0,"x_max":330,"ha":330,"o":"m 290 -80 l 140 -80 l 40 20 l 40 620 l 140 720 l 290 720 l 290 570 l 190 570 l 190 70 l 290 70 z"},"C":{"x_min":0,"x_max":480,"ha":480,"o":"m 440 60 l 340 -40 l 140 -40 l 40 60 l 40 560 l 140 660 l 340 660 l 440 560 l 440 410 l 290 410 l 290 510 l 190 510 l 190 110 l 290 110 l 290 210 l 440 210 z"},"W":{"x_min":0,"x_max":630,"ha":630,"o":"m 645 660 l 515 -40 l 355 -40 l 315 193 l 275 -40 l 115 -40 l -15 660 l 135 660 l 215 273 l 275 660 l 355 660 l 415 273 l 495 660 z"},"A":{"x_min":0,"x_max":430,"ha":430,"o":"m 252 320 l 215 537 l 178 320 z m 445 70 l 295 70 l 278 170 l 152 170 l 135 70 l -15 70 l 115 770 l 315 770 z"},"f":{"x_min":0,"x_max":400,"ha":400,"o":"m 390 255 l 190 255 l 190 -20 l 40 -20 l 40 680 l 390 680 l 390 530 l 190 530 l 190 405 l 390 405 z"},"Q":{"x_min":0,"x_max":480,"ha":480,"o":"m 290 110 l 290 510 l 190 510 l 190 110 z m 480 -40 l 140 -40 l 40 60 l 40 560 l 140 660 l 340 660 l 440 560 l 440 110 l 390 60 l 480 60 z"},"w":{"x_min":0,"x_max":630,"ha":630,"o":"m 645 730 l 515 30 l 355 30 l 315 263 l 275 30 l 115 30 l -15 730 l 135 730 l 215 343 l 275 730 l 355 730 l 415 343 l 495 730 z"},"-":{"x_min":0,"x_max":400,"ha":400,"o":"m 375 287 l 69 287 l 69 356 l 375 356 z"},"E":{"x_min":0,"x_max":430,"ha":430,"o":"m 390 -30 l 40 -30 l 40 670 l 390 670 l 390 520 l 190 520 l 190 395 l 390 395 l 390 245 l 190 245 l 190 120 l 390 120 z"},"s":{"x_min":0,"x_max":480,"ha":480,"o":"m 440 70 l 340 -30 l 140 -30 l 40 70 l 40 170 l 190 170 l 190 120 l 290 120 l 290 245 l 140 245 l 40 345 l 40 570 l 140 670 l 340 670 l 440 570 l 440 470 l 290 470 l 290 520 l 190 520 l 190 395 l 340 395 l 440 295 z"},">":{"x_min":0,"x_max":583,"ha":583,"o":"m 529 354 l 55 110 l 55 216 l 430 403 l 55 589 l 55 694 l 529 453 z"},"l":{"x_min":0,"x_max":400,"ha":400,"o":"m 390 -50 l 40 -50 l 40 650 l 190 650 l 190 100 l 390 100 z"},"8":{"x_min":0,"x_max":460,"ha":460,"o":"m 280 180 l 280 305 l 180 305 l 180 180 z m 280 455 l 280 580 l 180 580 l 180 455 z m 440 140 l 330 30 l 130 30 l 20 140 l 20 300 l 100 380 l 30 450 l 30 630 l 130 730 l 330 730 l 430 630 l 430 450 l 360 380 l 440 300 z"},"\\":{"x_min":0,"x_max":548,"ha":548,"o":"m 519 87 l 389 12 l 41 619 l 171 694 z"},"e":{"x_min":0,"x_max":430,"ha":430,"o":"m 390 30 l 40 30 l 40 730 l 390 730 l 390 580 l 190 580 l 190 455 l 390 455 l 390 305 l 190 305 l 190 180 l 390 180 z"},"b":{"x_min":0,"x_max":470,"ha":470,"o":"m 290 140 l 290 265 l 190 265 l 190 140 z m 290 415 l 290 540 l 190 540 l 190 415 z m 450 100 l 340 -10 l 40 -10 l 40 690 l 340 690 l 440 590 l 440 410 l 370 340 l 450 260 z"},"%":{"x_min":0,"x_max":889,"ha":889,"o":"m 58 544 q 58 621 96 674 q 135 728 208 728 q 276 728 320 680 q 364 632 364 539 q 364 448 320 399 q 275 350 209 350 q 145 350 102 398 q 58 446 58 544 z m 211 667 q 178 667 156 639 q 135 611 135 535 q 135 466 157 438 q 179 410 211 410 q 244 410 266 438 q 288 467 288 542 q 288 611 266 639 q 244 667 211 667 z m 211 -26 l 603 728 l 674 728 l 284 -26 z m 521 168 q 521 245 560 298 q 598 352 672 352 q 739 352 784 304 q 828 256 828 163 q 828 72 783 23 q 738 -26 672 -26 q 607 -26 564 22 q 521 71 521 168 z m 674 292 q 641 292 620 264 q 598 235 598 159 q 598 91 620 62 q 642 34 674 34 q 708 34 730 62 q 751 91 751 166 q 751 235 729 264 q 707 292 674 292 z"},"m":{"x_min":0,"x_max":580,"ha":580,"o":"m 540 30 l 390 30 l 390 280 l 290 30 l 190 280 l 190 30 l 40 30 l 40 730 l 190 730 l 290 480 l 390 730 l 540 730 z"},"#":{"x_min":0,"x_max":556,"ha":556,"o":"m 50 -12 l 93 196 l 10 196 l 10 269 l 107 269 l 144 446 l 10 446 l 10 519 l 158 519 l 201 728 l 274 728 l 231 519 l 385 519 l 428 728 l 501 728 l 459 519 l 543 519 l 543 446 l 444 446 l 408 269 l 543 269 l 543 196 l 393 196 l 351 -12 l 277 -12 l 319 196 l 166 196 l 124 -12 z m 181 269 l 334 269 l 371 446 l 217 446 z"},",":{"x_min":0,"x_max":230,"ha":230,"o":"m 190 -20 l 90 -120 l 90 -20 l 40 -20 l 40 130 l 190 130 z"},"n":{"x_min":0,"x_max":480,"ha":480,"o":"m 440 40 l 290 40 l 190 320 l 190 40 l 40 40 l 40 740 l 190 740 l 290 460 l 290 740 l 440 740 z"},"h":{"x_min":0,"x_max":480,"ha":480,"o":"m 440 50 l 290 50 l 290 325 l 190 325 l 190 50 l 40 50 l 40 750 l 190 750 l 190 475 l 290 475 l 290 750 l 440 750 z"},"z":{"x_min":0,"x_max":480,"ha":480,"o":"m 440 -40 l 40 -40 l 40 110 l 260 510 l 40 510 l 40 660 l 440 660 l 440 510 l 220 110 l 440 110 z"},"B":{"x_min":0,"x_max":470,"ha":470,"o":"m 290 180 l 290 305 l 190 305 l 190 180 z m 290 455 l 290 580 l 190 580 l 190 455 z m 450 140 l 340 30 l 40 30 l 40 730 l 340 730 l 440 630 l 440 450 l 370 380 l 450 300 z"},"K":{"x_min":0,"x_max":480,"ha":480,"o":"m 440 -20 l 290 -20 l 190 260 l 190 -20 l 40 -20 l 40 680 l 190 680 l 190 400 l 290 680 l 440 680 l 315 330 z"},"R":{"x_min":0,"x_max":480,"ha":480,"o":"m 290 455 l 290 580 l 190 580 l 190 455 z m 440 30 l 290 30 l 290 305 l 190 305 l 190 30 l 40 30 l 40 730 l 340 730 l 440 630 l 440 450 l 370 380 l 440 310 z"},"T":{"x_min":0,"x_max":470,"ha":470,"o":"m 460 520 l 310 520 l 310 -30 l 160 -30 l 160 520 l 10 520 l 10 670 l 460 670 z"},"P":{"x_min":0,"x_max":450,"ha":450,"o":"m 290 445 l 290 570 l 190 570 l 190 445 z m 440 395 l 340 295 l 190 295 l 190 20 l 40 20 l 40 720 l 340 720 l 440 620 z"},"|":{"x_min":0,"x_max":230,"ha":230,"o":"m 190 0 l 40 0 l 40 750 l 190 750 z"},"t":{"x_min":0,"x_max":470,"ha":470,"o":"m 460 590 l 310 590 l 310 40 l 160 40 l 160 590 l 10 590 l 10 740 l 460 740 z"},"M":{"x_min":0,"x_max":580,"ha":580,"o":"m 540 -30 l 390 -30 l 390 220 l 290 -30 l 190 220 l 190 -30 l 40 -30 l 40 670 l 190 670 l 290 420 l 390 670 l 540 670 z"},"g":{"x_min":0,"x_max":480,"ha":480,"o":"m 440 110 l 340 10 l 140 10 l 40 110 l 40 610 l 140 710 l 340 710 l 440 610 l 440 460 l 290 460 l 290 560 l 190 560 l 190 160 l 290 160 l 290 235 l 240 235 l 240 385 l 440 385 z"},"j":{"x_min":0,"x_max":450,"ha":450,"o":"m 410 130 l 310 30 l 110 30 l 10 130 l 10 280 l 160 280 l 160 180 l 260 180 l 260 730 l 410 730 z"},"i":{"x_min":0,"x_max":230,"ha":230,"o":"m 190 -20 l 40 -20 l 40 680 l 190 680 z"},"y":{"x_min":0,"x_max":470,"ha":470,"o":"m 460 720 l 310 350 l 310 20 l 160 20 l 160 350 l 10 720 l 160 720 l 235 525 l 310 720 z"},"@":{"x_min":0,"x_max":1015,"ha":1015,"o":"m 562 225 q 531 196 492 179 q 453 162 414 162 q 371 162 330 182 q 289 201 264 242 q 239 283 239 332 q 239 392 278 452 q 318 513 376 544 q 435 574 490 574 q 532 574 570 556 q 608 539 636 504 l 652 563 l 739 563 l 669 309 q 655 256 655 250 q 655 240 665 232 q 675 225 689 225 q 714 225 756 248 q 811 278 844 329 q 876 380 876 434 q 876 498 834 553 q 793 608 711 641 q 629 674 530 674 q 416 674 322 632 q 229 591 178 514 q 126 436 126 347 q 126 254 178 187 q 229 120 326 88 q 424 56 543 56 q 669 56 755 89 q 841 122 883 170 l 971 170 q 946 130 886 89 q 826 48 744 24 q 661 0 544 0 q 437 0 346 22 q 255 43 191 86 q 127 130 95 186 q 54 258 54 341 q 54 433 103 517 q 162 620 270 674 q 379 729 534 729 q 654 729 750 690 q 845 652 900 576 q 947 510 947 433 q 947 323 849 238 q 760 162 656 162 q 622 162 602 170 q 581 177 572 192 q 565 202 562 225 z m 328 328 q 328 276 360 247 q 391 218 432 218 q 459 218 489 230 q 519 243 546 268 q 574 293 591 332 q 608 370 608 409 q 608 461 576 489 q 543 517 496 517 q 465 517 438 505 q 410 493 384 466 q 359 438 344 399 q 328 360 328 328 z"},".":{"x_min":0,"x_max":230,"ha":230,"o":"m 190 20 l 40 20 l 40 170 l 190 170 z"},"p":{"x_min":0,"x_max":450,"ha":450,"o":"m 290 385 l 290 510 l 190 510 l 190 385 z m 440 335 l 340 235 l 190 235 l 190 -40 l 40 -40 l 40 660 l 340 660 l 440 560 z"},"X":{"x_min":0,"x_max":470,"ha":470,"o":"m 460 30 l 310 30 l 235 205 l 160 30 l 10 30 l 160 380 l 10 730 l 160 730 l 235 555 l 310 730 l 460 730 l 310 380 z"},"*":{"x_min":0,"x_max":389,"ha":389,"o":"m 31 584 l 54 654 q 131 626 167 606 q 157 695 157 728 l 228 728 q 226 680 216 607 q 267 632 332 654 l 354 584 q 292 564 232 557 q 262 531 316 465 l 258 423 q 229 462 191 528 q 155 459 127 423 l 70 465 q 126 535 151 557 q 88 569 31 584 z"},"Y":{"x_min":0,"x_max":470,"ha":470,"o":"m 460 680 l 310 310 l 310 -20 l 160 -20 l 160 310 l 10 680 l 160 680 l 235 485 l 310 680 z"},"c":{"x_min":0,"x_max":480,"ha":480,"o":"m 440 130 l 340 30 l 140 30 l 40 130 l 40 630 l 140 730 l 340 730 l 440 630 l 440 480 l 290 480 l 290 580 l 190 580 l 190 180 l 290 180 l 290 280 l 440 280 z"},"!":{"x_min":0,"x_max":230,"ha":230,"o":"m 190 40 l 40 40 l 40 190 l 190 190 z m 190 540 l 170 240 l 60 240 l 40 540 l 40 740 l 190 740 z"},"/":{"x_min":0,"x_max":598,"ha":598,"o":"m 40 69 l 178 -6 l 548 601 l 410 676 z"},"[":{"x_min":0,"x_max":330,"ha":330,"o":"m 290 -30 l 40 -30 l 40 770 l 290 770 l 290 620 l 190 620 l 190 120 l 290 120 z"},"6":{"x_min":0,"x_max":480,"ha":480,"o":"m 290 190 l 290 315 l 190 315 l 190 190 z m 440 140 l 340 40 l 140 40 l 40 140 l 40 640 l 140 740 l 340 740 l 440 640 l 440 540 l 290 540 l 290 590 l 190 590 l 190 465 l 340 465 l 440 365 z"},"r":{"x_min":0,"x_max":480,"ha":480,"o":"m 290 385 l 290 510 l 190 510 l 190 385 z m 440 -40 l 290 -40 l 290 235 l 190 235 l 190 -40 l 40 -40 l 40 660 l 340 660 l 440 560 l 440 380 l 370 310 l 440 240 z"},"2":{"x_min":0,"x_max":480,"ha":480,"o":"m 440 20 l 40 20 l 40 345 l 140 445 l 290 445 l 290 570 l 190 570 l 190 520 l 40 520 l 40 620 l 140 720 l 340 720 l 440 620 l 440 395 l 340 295 l 190 295 l 190 170 l 440 170 z"},"{":{"x_min":0,"x_max":370,"ha":370,"o":"m 330 -80 l 180 -80 l 80 20 l 80 250 l 20 300 l 20 340 l 80 390 l 80 620 l 180 720 l 330 720 l 330 570 l 230 570 l 230 370 l 180 320 l 230 270 l 230 70 l 330 70 z"},"9":{"x_min":0,"x_max":480,"ha":480,"o":"m 290 385 l 290 510 l 190 510 l 190 385 z m 440 60 l 340 -40 l 140 -40 l 40 60 l 40 160 l 190 160 l 190 110 l 290 110 l 290 235 l 140 235 l 40 335 l 40 560 l 140 660 l 340 660 l 440 560 z"}," ":{"x_min":0,"x_max":400,"ha":400,"o":""},"I":{"x_min":0,"x_max":230,"ha":230,"o":"m 190 40 l 40 40 l 40 740 l 190 740 z"},"H":{"x_min":0,"x_max":480,"ha":480,"o":"m 440 -30 l 290 -30 l 290 245 l 190 245 l 190 -30 l 40 -30 l 40 670 l 190 670 l 190 395 l 290 395 l 290 670 l 440 670 z"},"4":{"x_min":0,"x_max":480,"ha":480,"o":"m 440 -20 l 290 -20 l 290 255 l 40 255 l 40 680 l 190 680 l 190 405 l 290 405 l 290 680 l 440 680 z"},"~":{"x_min":0,"x_max":583,"ha":583,"o":"m 42 272 l 42 416 q 94 500 178 500 q 208 500 240 488 q 272 476 332 439 q 365 419 382 412 q 399 406 416 406 q 448 406 482 434 q 516 461 542 502 l 542 354 q 511 312 479 293 q 447 274 407 274 q 377 274 350 284 q 324 293 266 330 q 208 368 170 368 q 139 368 111 348 q 83 329 42 272 z"},"D":{"x_min":0,"x_max":480,"ha":480,"o":"m 290 140 l 290 540 l 190 540 l 190 140 z m 440 90 l 340 -10 l 40 -10 l 40 690 l 340 690 l 440 590 z"},"^":{"x_min":0,"x_max":602,"ha":602,"o":"m 146 337 l 26 337 l 255 728 l 349 728 l 579 337 l 462 337 l 302 628 z"},"0":{"x_min":0,"x_max":480,"ha":480,"o":"m 290 190 l 290 590 l 190 590 l 190 190 z m 440 140 l 340 40 l 140 40 l 40 140 l 40 640 l 140 740 l 340 740 l 440 640 z"},"F":{"x_min":0,"x_max":400,"ha":400,"o":"m 390 315 l 190 315 l 190 40 l 40 40 l 40 740 l 390 740 l 390 590 l 190 590 l 190 465 l 390 465 z"},"`":{"x_min":0,"x_max":361,"ha":361,"o":"m 336 559 l 223 559 l 44 720 l 231 720 z"},"k":{"x_min":0,"x_max":480,"ha":480,"o":"m 440 40 l 290 40 l 190 320 l 190 40 l 40 40 l 40 740 l 190 740 l 190 460 l 290 740 l 440 740 l 315 390 z"},"u":{"x_min":0,"x_max":480,"ha":480,"o":"m 440 80 l 340 -20 l 140 -20 l 40 80 l 40 680 l 190 680 l 190 130 l 290 130 l 290 680 l 440 680 z"},"]":{"x_min":0,"x_max":330,"ha":330,"o":"m 290 -40 l 40 -40 l 40 110 l 140 110 l 140 610 l 40 610 l 40 760 l 290 760 z"},"U":{"x_min":0,"x_max":480,"ha":480,"o":"m 440 140 l 340 40 l 140 40 l 40 140 l 40 740 l 190 740 l 190 190 l 290 190 l 290 740 l 440 740 z"},"o":{"x_min":0,"x_max":480,"ha":480,"o":"m 290 120 l 290 520 l 190 520 l 190 120 z m 440 70 l 340 -30 l 140 -30 l 40 70 l 40 570 l 140 670 l 340 670 l 440 570 z"},"N":{"x_min":0,"x_max":480,"ha":480,"o":"m 440 -20 l 290 -20 l 190 260 l 190 -20 l 40 -20 l 40 680 l 190 680 l 290 400 l 290 680 l 440 680 z"},"+":{"x_min":0,"x_max":583,"ha":583,"o":"m 250 116 l 250 312 l 56 312 l 56 394 l 250 394 l 250 589 l 333 589 l 333 394 l 528 394 l 528 312 l 333 312 l 333 116 z"},"G":{"x_min":0,"x_max":480,"ha":480,"o":"m 440 50 l 340 -50 l 140 -50 l 40 50 l 40 550 l 140 650 l 340 650 l 440 550 l 440 400 l 290 400 l 290 500 l 190 500 l 190 100 l 290 100 l 290 175 l 240 175 l 240 325 l 440 325 z"},"q":{"x_min":0,"x_max":480,"ha":480,"o":"m 290 160 l 290 560 l 190 560 l 190 160 z m 480 10 l 140 10 l 40 110 l 40 610 l 140 710 l 340 710 l 440 610 l 440 160 l 390 110 l 480 110 z"},"d":{"x_min":0,"x_max":480,"ha":480,"o":"m 290 180 l 290 580 l 190 580 l 190 180 z m 440 130 l 340 30 l 40 30 l 40 730 l 340 730 l 440 630 z"},"1":{"x_min":0,"x_max":230,"ha":230,"o":"m 190 -30 l 40 -30 l 40 670 l 190 670 z"},"5":{"x_min":0,"x_max":480,"ha":480,"o":"m 440 60 l 340 -40 l 140 -40 l 40 60 l 40 160 l 190 160 l 190 110 l 290 110 l 290 235 l 140 235 l 40 335 l 40 660 l 440 660 l 440 510 l 190 510 l 190 385 l 340 385 l 440 285 z"}}}
